<?xml version="1.0" encoding="UTF-8"?>
<svg id="Layer_1" data-name="Layer 1" xmlns="http://www.w3.org/2000/svg" viewBox="0 0 1478.04 562.2">
  <defs>
    <style>
      .cls-1 {
        fill: #b87333;
        stroke-width: 0px;
      }
    </style>
  </defs>
  <g id="london">
    <polygon class="cls-1" points="17.22 545.74 17.22 424.2 0 424.2 0 545.74 0 562.2 17.22 562.2 92.93 562.2 92.93 545.74 17.22 545.74"/>
    <polygon class="cls-1" points="391.36 424.26 376.5 424.26 376.5 524.62 292.89 424.2 292.89 557.87 307.76 557.87 307.76 464 391.36 562.2 391.36 424.26"/>
    <path class="cls-1" d="m637.79,424.2c-38.11,0-69,30.89-69,69s30.89,69,69,69,69-30.89,69-69-30.89-69-69-69Zm0,121.51c-29,0-52.51-23.51-52.51-52.51s23.51-52.51,52.51-52.51,52.51,23.51,52.51,52.51-23.51,52.51-52.51,52.51Z"/>
    <path class="cls-1" d="m546.12,492.53c0-38.42-33.21-68.18-71.66-68.18-7.19,0-16.68-.35-24.66,0h-16.01v137.85h17.2v-.11c7.71.27,16.63-.05,23.46-.05,38.45,0,71.66-29.76,71.66-68.18,0-.23-.01-.45-.02-.67,0-.22.02-.44.02-.66Zm-95.13-51.72c8.76-.61,19.38-.05,25.01-.05,29.26,0,53.48,22.53,53.48,51.78,0,22.32-14,41.76-33.78,49.52-6.11,2.32-12.76,3.59-19.7,3.59-5.63,0-16.25.56-25.01-.05v-104.78Z"/>
    <path class="cls-1" d="m194.3,424.2c-38.11,0-69,30.89-69,69s30.89,69,69,69,69-30.89,69-69-30.89-69-69-69Zm0,121.51c-29,0-52.51-23.51-52.51-52.51s23.51-52.51,52.51-52.51,52.51,23.51,52.51,52.51-23.51,52.51-52.51,52.51Z"/>
    <polygon class="cls-1" points="834.86 424.26 819.99 424.26 819.99 524.62 736.39 424.2 736.39 557.87 751.26 557.87 751.26 464 834.86 562.2 834.86 424.26"/>
  </g>
  <g id="move">
    <polygon class="cls-1" points="1039.59 427.57 985.51 494.39 930.72 426.68 929.04 424.2 929.04 562.2 944.11 562.2 944.11 467.21 985.51 518.34 1026.79 467.36 1026.79 562.2 1041.86 562.2 1041.86 424.2 1039.59 427.57"/>
    <polygon class="cls-1" points="1301.22 562.07 1360.68 430.58 1346.65 424.2 1301.16 524.22 1255.67 424.2 1241.64 430.58 1301.1 562.07 1301.16 562.2 1301.16 562.19 1301.16 562.2 1301.22 562.07"/>
    <polygon class="cls-1" points="1408.54 546.07 1408.54 490.6 1452.32 490.6 1452.32 473.42 1408.54 473.42 1408.54 441.38 1473.74 441.38 1473.74 424.2 1408.54 424.2 1392.36 424.2 1392.36 441.38 1392.36 546.07 1392.36 562.2 1408.54 562.2 1478.04 562.2 1478.04 546.07 1408.54 546.07"/>
    <path class="cls-1" d="m1157.45,424.2c-38.11,0-69,30.89-69,69s30.89,69,69,69,69-30.89,69-69-30.89-69-69-69Zm0,121.51c-29,0-52.51-23.51-52.51-52.51s23.51-52.51,52.51-52.51,52.51,23.51,52.51,52.51-23.51,52.51-52.51,52.51Z"/>
  </g>
</svg>