<?xml version="1.0" encoding="UTF-8"?>
<svg id="Layer_1" data-name="Layer 1" xmlns="http://www.w3.org/2000/svg" viewBox="0 0 1478.04 562.2">
  <defs>
    <style>
      .cls-1 {
        fill: #b87333;
        stroke-width: 0px;
      }
    </style>
  </defs>
  <path class="cls-1" d="m681.29,172.01c7.81-15.88,12.22-33.74,12.22-52.63,0-65.93-53.45-119.39-119.38-119.39s-119.38,53.45-119.38,119.39c0,18.03,4.02,35.11,11.17,50.43h-.02s.19.38.19.38c.99,2.1,2.02,4.18,3.13,6.21l83.4,165.44c-43.72,4.38-76.4,21.82-76.4,42.67,0,24.16,43.84,43.75,97.91,43.75s97.91-19.59,97.91-43.75c0-20.86-32.67-38.29-76.39-42.67l85.66-169.84h-.01Zm-30.68,205.37c0,15.61-34.24,28.27-76.48,28.27s-76.48-12.66-76.48-28.27c0-13.39,25.19-24.6,59.01-27.52l17.47,34.66,17.48-34.66c33.81,2.92,59,14.13,59,27.52Zm-22.18-191.49h-108.6v-79.17l20.05,17.76v42.88h88.56v18.52Zm0-46.69h-18.52v-39.58l-35.78,35.02-54.3-54.05v-27.4l54.3,53.54,54.3-51.76v84.24Z"/>
</svg>